<svg width="107" height="107" viewBox="0 0 107 107" fill="none" xmlns="http://www.w3.org/2000/svg">
<path d="M10.1055 41.6678C19.0024 41.1031 35.8335 45.4842 53.988 53.6077C74.784 62.913 90.7613 74.1957 93.9499 81.2523M4.42217 48.8289C8.26857 55.9147 23.8977 66.791 44.0534 75.8099C64.8089 85.0972 83.8345 89.493 91.2518 87.199" stroke="#5C636B" stroke-linecap="round"/>
<path d="M75.0874 73.1152C75.2301 73.6093 75.2765 74.073 75.2201 74.5008L74.7244 74.4355C74.6994 74.6255 74.6497 74.8036 74.5754 74.9709C74.5012 75.1383 74.4025 75.2947 74.2784 75.4407L74.6595 75.7644C74.3802 76.0933 74.0053 76.3701 73.5432 76.5959L73.3236 76.1467C72.9802 76.3146 72.5734 76.4557 72.1034 76.5669L72.2186 77.0535C71.7964 77.1534 71.3345 77.2287 70.836 77.2798L70.7851 76.7824C70.3616 76.8257 69.9081 76.8512 69.4262 76.8585L69.4338 77.3585C68.987 77.3653 68.5186 77.357 68.0301 77.3337L68.0538 76.8343C67.6136 76.8133 67.1557 76.7799 66.6813 76.7342L66.6333 77.2319C66.1814 77.1883 65.7155 77.1337 65.2366 77.0683L65.3043 76.5729C64.8595 76.5122 64.4029 76.442 63.9353 76.3623L63.8513 76.8552C63.4012 76.7784 62.9414 76.6931 62.4725 76.5993L62.5706 76.1091C62.125 76.0199 61.6709 75.923 61.2089 75.8183L61.0984 76.306C60.6497 76.2043 60.1938 76.0955 59.7312 75.9795L59.8528 75.4945C59.4104 75.3836 58.9618 75.2662 58.5073 75.1422L58.3757 75.6246C57.9312 75.5033 57.4813 75.3758 57.0265 75.2423L57.1674 74.7625C56.7273 74.6333 56.2826 74.4983 55.8335 74.3576L55.684 74.8348C55.2428 74.6965 54.7975 74.5528 54.3485 74.4037L54.5061 73.9292C54.0694 73.7841 53.6291 73.6339 53.1856 73.4786L53.0203 73.9505C52.583 73.7973 52.1425 73.6392 51.6994 73.4762L51.872 73.007C51.4391 72.8477 51.0035 72.6838 50.5656 72.5152L50.386 72.9818C49.9528 72.815 49.5174 72.6437 49.08 72.4679L49.2665 72.004C48.8377 71.8316 48.4071 71.6549 47.9748 71.474L47.7817 71.9352C47.3529 71.7556 46.9226 71.5719 46.491 71.3841L46.6906 70.9256C46.4772 70.8327 46.2634 70.7388 46.0494 70.6438C45.8354 70.5489 45.6223 70.4535 45.4102 70.3576L45.2042 70.8132C44.7753 70.6193 44.3503 70.4236 43.9295 70.2262L44.1418 69.7735C43.7176 69.5745 43.2975 69.3738 42.882 69.1716L42.6632 69.6212C42.2394 69.4149 41.8202 69.2071 41.4058 68.9978L41.6312 68.5515C41.2123 68.34 40.7985 68.1271 40.3899 67.913L40.1578 68.3559C39.7396 68.1368 39.3268 67.9164 38.9197 67.695L39.1587 67.2557C38.7459 67.0312 38.339 66.8056 37.9384 66.5791L37.6924 67.0144C37.2805 66.7816 36.8751 66.548 36.4766 66.3136L36.73 65.8826C36.3243 65.6441 35.9257 65.4049 35.5346 65.1654L35.2735 65.5918C34.8693 65.3443 34.4728 65.0963 34.0846 64.8481L34.3539 64.4268C33.957 64.1731 33.5688 63.9194 33.1898 63.6658L32.9118 64.0814C32.5154 63.8163 32.1287 63.5514 31.7522 63.2869L32.0396 62.8777C31.652 62.6055 31.2753 62.3339 30.9102 62.0633L30.6125 62.4651C30.2284 62.1804 29.8565 61.8968 29.4976 61.6146L29.8066 61.2215C29.4337 60.9283 29.0752 60.637 28.7317 60.348L28.4099 60.7306C28.04 60.4195 27.6869 60.1107 27.3513 59.8049L27.688 59.4353C27.3357 59.1143 27.0037 58.7973 26.6927 58.485L26.3384 58.8378C25.9933 58.4912 25.6728 58.1495 25.378 57.8137L25.7538 57.4839C25.4358 57.1216 25.1503 56.7683 24.8983 56.4253L24.4953 56.7213C24.1986 56.3175 23.9445 55.9246 23.7352 55.5445L24.1732 55.3033C23.9403 54.8802 23.7719 54.4839 23.6659 54.1167L23.1855 54.2554C23.0428 53.7612 22.9964 53.2975 23.0528 52.8697L23.5485 52.9351C23.5736 52.7451 23.6232 52.567 23.6975 52.3996C23.7717 52.2323 23.8705 52.0759 23.9945 51.9298L23.6134 51.6062C23.8927 51.2773 24.2676 51.0005 24.7297 50.7746L24.9493 51.2238C25.2927 51.056 25.6995 50.9149 26.1695 50.8036L26.0543 50.3171C26.4765 50.2171 26.9384 50.1418 27.4369 50.0908L27.4878 50.5882C27.9113 50.5448 28.3648 50.5194 28.8468 50.512L28.8391 50.0121C29.2859 50.0052 29.7543 50.0135 30.2429 50.0368L30.2191 50.5363C30.6593 50.5572 31.1172 50.5906 31.5916 50.6364L31.6396 50.1387C32.0915 50.1823 32.5574 50.2368 33.0363 50.3022L32.9686 50.7976C33.4134 50.8583 33.87 50.9286 34.3376 51.0083L34.4216 50.5154C34.8717 50.5921 35.3315 50.6774 35.8004 50.7712L35.7023 51.2615C36.1479 51.3506 36.602 51.4476 37.064 51.5522L37.1745 51.0646C37.6232 51.1663 38.0792 51.2751 38.5417 51.391L38.4202 51.876C38.8625 51.9869 39.3112 52.1044 39.7656 52.2284L39.8972 51.746C40.3417 51.8673 40.7916 51.9947 41.2464 52.1283L41.1055 52.608C41.5456 52.7372 41.9903 52.8722 42.4394 53.0129L42.5889 52.5358C43.0301 52.674 43.4754 52.8177 43.9244 52.9668L43.7668 53.4414C44.2035 53.5864 44.6438 53.7366 45.0873 53.892L45.2526 53.4201C45.69 53.5732 46.1304 53.7313 46.5735 53.8943L46.4009 54.3636C46.8338 54.5228 47.2694 54.6868 47.7073 54.8554L47.8869 54.3888C48.3201 54.5556 48.7555 54.7269 49.1929 54.9027L49.0064 55.3666C49.4352 55.5389 49.8659 55.7156 50.2981 55.8966L50.4912 55.4354C50.92 55.6149 51.3503 55.7986 51.7819 55.9865L51.5823 56.4449C51.7958 56.5378 52.0095 56.6318 52.2235 56.7267C52.4376 56.8217 52.6506 56.9171 52.8628 57.013L53.0687 56.5574C53.4976 56.7512 53.9226 56.947 54.3434 57.1444L54.1311 57.597C54.5554 57.7961 54.9754 57.9968 55.3909 58.199L55.6097 57.7494C56.0335 57.9557 56.4527 58.1635 56.8671 58.3727L56.6417 58.819C57.0606 59.0305 57.4745 59.2434 57.8831 59.4575L58.1151 59.0146C58.5333 59.2338 58.9461 59.4542 59.3532 59.6756L59.1143 60.1148C59.5271 60.3394 59.9339 60.565 60.3345 60.7914L60.5806 60.3561C60.9924 60.5889 61.3978 60.8226 61.7964 61.0569L61.543 61.488C61.9487 61.7265 62.3472 61.9656 62.7383 62.2051L62.9994 61.7787C63.4037 62.0263 63.8001 62.2743 64.1883 62.5224L63.919 62.9437C64.3159 63.1974 64.7041 63.4512 65.0832 63.7047L65.3611 63.2891C65.7575 63.5542 66.1442 63.8192 66.5207 64.0837L66.2333 64.4928C66.621 64.7651 66.9976 65.0367 67.3627 65.3072L67.6604 64.9055C68.0446 65.1901 68.4164 65.4738 68.7753 65.756L68.4663 66.149C68.8392 66.4422 69.1977 66.7336 69.5412 67.0225L69.8631 66.6399C70.2329 66.9511 70.586 67.2599 70.9216 67.5656L70.5849 67.9352C70.9372 68.2562 71.2692 68.5733 71.5802 68.8856L71.9345 68.5328C72.2796 68.8793 72.6001 69.221 72.8949 69.5568L72.5191 69.8867C72.8371 70.2489 73.1226 70.6022 73.3747 70.9453L73.7776 70.6492C74.0743 71.0531 74.3284 71.446 74.5377 71.8261L74.0997 72.0672C74.3326 72.4903 74.501 72.8866 74.607 73.2538L75.0874 73.1152Z" stroke="#5C636B" stroke-dasharray="1.37 1.37"/>
<path d="M6.46374 46.1394C6.62796 46.3232 6.93098 46.1844 6.89915 45.9401C6.77091 44.9553 7.13704 43.9708 7.87754 43.3091C8.06131 43.1449 7.92257 42.8418 7.67818 42.8737C6.69345 43.0019 5.70888 42.6358 5.0472 41.8953C4.88299 41.7115 4.57997 41.8503 4.61179 42.0946C4.74003 43.0794 4.3739 44.0639 3.6334 44.7256C3.44963 44.8898 3.58837 45.1929 3.83276 45.161C4.8175 45.0328 5.80206 45.3989 6.46374 46.1394Z" fill="#42474D"/>
<path d="M92.4791 84.2259L92.9172 83.9849L92.4791 84.2259C92.139 83.6078 92.809 82.9237 93.4341 83.2509C94.0305 83.5631 94.7447 83.5616 95.3379 83.2462C95.9509 82.9202 96.62 83.5756 96.3068 84.1952C96.0038 84.7948 96.0172 85.5089 96.3417 86.0987C96.6818 86.7169 96.0118 87.4009 95.3867 87.0737C94.7903 86.7616 94.076 86.763 93.4829 87.0784C92.8699 87.4044 92.2008 86.7491 92.514 86.1294C92.817 85.5298 92.8036 84.8157 92.4791 84.2259Z" fill="#85FFEB" stroke="#5C636B"/>
<path d="M98.088 35.0565C97.8213 35.0591 97.7159 35.403 97.9354 35.5546C98.8262 36.1699 99.356 37.1895 99.3511 38.2722C99.3498 38.544 99.7033 38.6523 99.8546 38.4265C100.457 37.527 101.467 36.9792 102.55 36.9687C102.817 36.9661 102.922 36.6221 102.702 36.4706C101.812 35.8553 101.282 34.8356 101.287 33.7529C101.288 33.4812 100.935 33.3729 100.783 33.5987C100.181 34.4982 99.1707 35.0459 98.088 35.0565Z" fill="#42474D"/>
<path d="M53.6527 18.2346C54.2039 18.0809 54.7066 18.5982 54.5374 19.1448L53.6364 22.0537C53.4833 22.5481 53.5605 23.0851 53.8468 23.5163L55.531 26.0534C55.8475 26.5301 55.5109 27.1681 54.9387 27.176L51.8938 27.218C51.3763 27.2252 50.8894 27.4646 50.5678 27.8701L48.6753 30.2559C48.3197 30.7042 47.609 30.5812 47.4246 30.0395L46.4437 27.1566C46.277 26.6666 45.8988 26.2776 45.4138 26.097L42.56 25.0344C42.0237 24.8347 41.9211 24.1207 42.3793 23.778L44.818 21.9542C45.2324 21.6443 45.4856 21.1644 45.5075 20.6473L45.6362 17.6048C45.6604 17.0331 46.3077 16.7148 46.7752 17.0447L49.2633 18.8005C49.6862 19.0989 50.2208 19.1914 50.7193 19.0524L53.6527 18.2346Z" fill="#F5FFFD" stroke="#5C636B"/>
<path d="M35.5489 23.1911C35.7738 23.1284 35.9789 23.3395 35.9098 23.5625L35.3242 25.4534C35.2091 25.8249 35.2671 26.2286 35.4823 26.5526L36.5771 28.2018C36.7062 28.3963 36.5689 28.6566 36.3354 28.6598L34.3561 28.6872C33.9672 28.6925 33.6012 28.8725 33.3595 29.1772L32.1293 30.7281C31.9842 30.911 31.6943 30.8608 31.6191 30.6398L30.9814 28.7658C30.8561 28.3976 30.5719 28.1051 30.2074 27.9694L28.3523 27.2787C28.1335 27.1972 28.0916 26.9059 28.2786 26.7661L29.8638 25.5806C30.1753 25.3476 30.3656 24.987 30.382 24.5983L30.4657 22.6206C30.4756 22.3874 30.7396 22.2575 30.9304 22.3921L32.5477 23.5334C32.8656 23.7577 33.2674 23.8272 33.6421 23.7227L35.5489 23.1911Z" fill="#F4FFFD" stroke="#5C636B"/>
<g filter="url(#filter0_i_361_53404)">
<rect x="67.6006" y="37.9399" width="6.18067" height="36.8631" rx="3.09034" transform="rotate(45 67.6006 37.9399)" fill="white"/>
</g>
<rect x="67.6006" y="38.647" width="5.18067" height="35.8631" rx="2.59034" transform="rotate(45 67.6006 38.647)" stroke="#5C636B"/>
<path d="M84.0652 23.5752C85.7669 23.1039 87.3155 24.7027 86.7902 26.3884L84.7674 32.8804C84.4787 33.8069 84.6218 34.8141 85.1572 35.6236L88.9083 41.2951C89.8823 42.7678 88.8404 44.7347 87.0748 44.7561L80.2755 44.8384C79.3051 44.8501 78.3914 45.2975 77.787 46.0568L73.5523 51.3769C72.4526 52.7583 70.26 52.3752 69.6941 50.7026L67.5147 44.2616C67.2037 43.3423 66.4959 42.6116 65.587 42.2714L59.2187 39.8879C57.565 39.2689 57.2519 37.0653 58.6677 36.0102L64.12 31.9471C64.8982 31.3672 65.3744 30.4682 65.4171 29.4987L65.716 22.7055C65.7936 20.9415 67.7927 19.9627 69.2336 20.9832L74.7828 24.9131C75.5747 25.474 76.5769 25.6491 77.5121 25.3901L84.0652 23.5752Z" fill="white" stroke="#5C636B"/>
<g style="mix-blend-mode:multiply" opacity="0.4">
<path fill-rule="evenodd" clip-rule="evenodd" d="M85.281 23.0605C83.9929 33.7706 75.8477 42.154 65.7607 42.8989C66.3595 43.2252 66.8192 43.7668 67.0407 44.4215L69.2201 50.8626C69.9129 52.91 72.5969 53.3791 73.9431 51.6879L78.1778 46.3678C78.6887 45.7261 79.461 45.3479 80.2812 45.338L87.0805 45.2557C89.2418 45.2295 90.5173 42.8218 89.3249 41.0189L85.5738 35.3474C85.1213 34.6633 85.0004 33.8119 85.2444 33.0288L87.2672 26.5369C87.7656 24.9371 86.7384 23.4014 85.281 23.0605Z" fill="#2CE4C5"/>
</g>
<defs>
<filter id="filter0_i_361_53404" x="42.8145" y="39.2202" width="27.877" height="27.876" filterUnits="userSpaceOnUse" color-interpolation-filters="sRGB">
<feFlood flood-opacity="0" result="BackgroundImageFix"/>
<feBlend mode="normal" in="SourceGraphic" in2="BackgroundImageFix" result="shape"/>
<feColorMatrix in="SourceAlpha" type="matrix" values="0 0 0 0 0 0 0 0 0 0 0 0 0 0 0 0 0 0 127 0" result="hardAlpha"/>
<feOffset dx="-1.3653" dy="-1.3653"/>
<feComposite in2="hardAlpha" operator="arithmetic" k2="-1" k3="1"/>
<feColorMatrix type="matrix" values="0 0 0 0 0.670588 0 0 0 0 0.956863 0 0 0 0 0.909804 0 0 0 1 0"/>
<feBlend mode="normal" in2="shape" result="effect1_innerShadow_361_53404"/>
</filter>
</defs>
</svg>
